<?xml version="1.0" encoding="UTF-8" standalone="no"?>
<svg
   xmlns:dc="http://purl.org/dc/elements/1.1/"
   xmlns:cc="http://creativecommons.org/ns#"
   xmlns:rdf="http://www.w3.org/1999/02/22-rdf-syntax-ns#"
   xmlns:svg="http://www.w3.org/2000/svg"
   xmlns="http://www.w3.org/2000/svg"
   xmlns:sodipodi="http://sodipodi.sourceforge.net/DTD/sodipodi-0.dtd"
   xmlns:inkscape="http://www.inkscape.org/namespaces/inkscape"
   inkscape:version="1.0 (4035a4fb49, 2020-05-01)"
   sodipodi:docname="That's The Beaver.svg"
   id="svg45"
   version="1.1"
   fill="none"
   viewBox="0 0 348 348">
  <metadata
     id="metadata49">
    <rdf:RDF>
      <cc:Work
         rdf:about="">
        <dc:format>image/svg+xml</dc:format>
        <dc:type
           rdf:resource="http://purl.org/dc/dcmitype/StillImage" />
        <dc:title></dc:title>
      </cc:Work>
    </rdf:RDF>
  </metadata>
  <sodipodi:namedview
     inkscape:current-layer="svg45"
     inkscape:window-maximized="1"
     inkscape:window-y="-9"
     inkscape:window-x="2391"
     inkscape:cy="164.78632"
     inkscape:cx="144.77942"
     inkscape:zoom="1.6864903"
     showgrid="true"
     id="namedview47"
     inkscape:window-height="1001"
     inkscape:window-width="1920"
     inkscape:pageshadow="2"
     inkscape:pageopacity="0"
     guidetolerance="10"
     gridtolerance="10"
     objecttolerance="10"
     borderopacity="1"
     bordercolor="#666666"
     pagecolor="#ffffff" />
  <defs
     id="defs7">
    <linearGradient
       id="a">
      <stop
         id="stop2"
         offset="0" />
      <stop
         id="stop4"
         offset="1"
         stop-opacity="0" />
    </linearGradient>
  </defs>
  <path
     id="path9"
     stroke="#000"
     stroke-width="2"
     d="M5 5.8h337v337.6H5z" />
  <path
     id="path11"
     stroke="#000"
     stroke-width="2"
     d="M282.7 40.6c0-8.4 7-15.2 15.6-15.2 4.1 0 8 1.6 11 4.4a15 15 0 014.6 10.8c0 8.3-7 15.1-15.6 15.1s-15.6-6.8-15.6-15.1z" />
  <path
     sodipodi:nodetypes="ccccccccc"
     id="path892"
     d="m 139.48716,57.548105 h 10 v 10 l 20,-20 -20,-20 v 10 h -20 v 20 c 10,0 0,0 10,0 z"
     style="fill:none;stroke:#000000;stroke-width:1px;stroke-linecap:butt;stroke-linejoin:miter;stroke-opacity:1" />
  <path
     style="fill:none;stroke:#000000;stroke-width:1.04857px;stroke-linecap:butt;stroke-linejoin:miter;stroke-opacity:1"
     d="M 96.739578,36.469505 H 86.253924 V 25.983851 L 65.28262,46.955158 86.253924,67.926465 V 57.440811 H 107.22523 V 36.469505 c -10.485652,0 0,0 -10.485652,0 z"
     id="path894"
     sodipodi:nodetypes="ccccccccc" />
  <rect
     ry="23.479519"
     y="111.5277"
     x="185.32048"
     height="187.23967"
     width="115.72048"
     id="rect896"
     style="fill:#ffffff;stroke:#000000;stroke-width:5;stroke-linejoin:round;stroke-opacity:1" />
  <path
     id="path912"
     d="m 210.36581,72.530605 c -4.06734,-0.743109 -6.14005,-2.37626 -6.144,-4.84104 -0.003,-1.653123 1.23871,-3.37161 3.12142,-4.321159 1.85783,-0.937004 4.88316,-1.760725 8.08062,-2.200149 0.88257,-0.121291 1.6263,-0.220529 1.65272,-0.220529 0.0264,0 0.0884,-0.252663 0.13782,-0.561474 0.18867,-1.179873 0.93234,-1.562734 3.64386,-1.875947 1.88262,-0.217467 1.88392,-0.218412 0.99349,-0.726554 -1.048,-0.598064 -2.39945,-1.995492 -2.87272,-2.970449 -0.21235,-0.43745 -0.44189,-1.151182 -0.51009,-1.58607 -0.10346,-0.659763 -0.24481,-0.930162 -0.85353,-1.632817 -1.1452,-1.321927 -2.60186,-2.635751 -3.58334,-3.231965 -0.85923,-0.521955 -0.9166,-0.536732 -1.26745,-0.326448 -0.20211,0.121138 -0.91141,0.549422 -1.57621,0.951744 -1.88378,1.140014 -3.1076,1.411519 -7.28641,1.61649 -1.6939,0.08308 -2.19463,0.780451 -1.37743,1.918376 0.62313,0.867687 0.47681,1.106034 -0.66898,1.089791 -1.04825,-0.01486 -1.82345,-0.372076 -2.25991,-1.041369 -0.67949,-1.041982 -0.58512,-2.337729 0.24348,-3.342966 0.57147,-0.693291 1.02441,-0.90345 2.49589,-1.158054 2.35909,-0.408184 3.9325,-1.464748 4.36871,-2.933645 l 0.22375,-0.753436 -0.53587,-0.783089 c -0.8224,-1.201806 -1.10379,-1.292772 -4.64569,-1.501797 -2.19689,-0.129651 -3.21442,-0.249483 -3.79969,-0.447485 l -0.79932,-0.270416 -0.16333,0.451684 c -0.2623,0.725367 -0.7864,1.198231 -1.32807,1.198231 -1.12998,0 -1.66601,-0.965824 -1.67065,-3.010198 -0.002,-0.756171 -0.04,-1.470956 -0.0851,-1.588411 -0.0451,-0.117455 -0.42571,-0.381742 -0.84586,-0.587304 -0.93414,-0.457032 -1.35135,-1.062313 -1.33793,-1.941057 l 0.01,-0.623131 0.17917,0.571794 c 0.0986,0.314487 0.29227,0.7444 0.4305,0.955363 0.25004,0.381606 1.6155,1.139594 1.82247,1.011679 0.29295,-0.181051 -0.20995,-2.694599 -0.68578,-3.427609 -0.29151,-0.449066 -0.84412,-0.409878 -1.34971,0.09571 -0.40468,0.404672 -0.41568,0.407137 -0.41568,0.09314 0,-0.414573 0.36728,-0.734158 0.99543,-0.866161 0.27374,-0.05753 1.16196,-0.547873 1.97383,-1.08966 1.88266,-1.25637 2.8434,-1.737856 4.31206,-2.161027 1.80842,-0.52107 6.84038,-1.245949 8.39327,-1.209092 l 0.74994,0.0178 -0.63992,0.115285 c -0.35195,0.06341 -1.87761,0.280022 -3.39036,0.481366 -3.54807,0.472244 -4.6694,0.706475 -6.08735,1.271565 -1.13918,0.453995 -3.19847,1.655786 -4.06165,2.370356 -0.42154,0.348966 -0.43011,0.377525 -0.21347,0.711019 0.31731,0.488448 0.8123,2.359309 0.8123,3.070162 0,0.327455 0.048,0.622214 0.10665,0.655019 0.0587,0.03281 0.0209,0.03793 -0.0839,0.01139 -0.70505,-0.178518 -0.35489,0.598908 0.71612,1.589946 1.33746,1.237594 1.57149,1.390343 2.6595,1.735851 0.86478,0.274618 1.57395,0.363535 3.77292,0.473052 3.59028,0.178809 4.01633,0.304993 4.84904,1.43616 0.34971,0.475037 0.63583,1.005243 0.63583,1.178237 0,0.583732 -0.43897,1.608274 -0.93973,2.193294 -0.63004,0.736066 -2.23262,1.540187 -3.46859,1.740431 -2.00161,0.324288 -2.49326,0.584404 -3.00665,1.590744 -0.81173,1.591115 0.0306,3.179766 1.81572,3.424442 0.88677,0.121545 1.03261,-0.04737 0.56743,-0.657252 -0.65407,-0.857523 -0.44071,-1.708025 0.5524,-2.202048 0.15642,-0.07781 1.14829,-0.18645 2.20416,-0.241416 3.56568,-0.185622 4.68764,-0.539641 7.39459,-2.333257 1.23881,-0.820833 3.21669,-2.678983 3.70629,-3.48193 0.15089,-0.247461 0.27459,-0.379543 0.27488,-0.293513 2.8e-4,0.08603 -0.17806,0.405989 -0.39635,0.711019 -0.21829,0.30503 -0.40654,0.70199 -0.41834,0.882132 -0.0118,0.180144 -0.2735,0.794786 -0.58154,1.365873 l -0.56007,1.038341 0.44515,0.26048 c 0.24483,0.143264 1.13366,0.956106 1.97518,1.806314 0.90001,0.90931 1.55419,1.469282 1.58871,1.359923 0.0323,-0.10225 0.10085,-0.441875 0.15238,-0.754723 0.0717,-0.435366 0.26854,-0.738896 0.83897,-1.293775 0.91455,-0.889613 2.07324,-1.335445 3.64001,-1.400572 0.5866,-0.02438 0.84256,-0.02015 0.56882,0.0094 -1.04452,0.112794 -2.17457,0.366476 -2.77061,0.621971 -0.64364,0.275894 -1.6928,1.136776 -1.93349,1.586504 -0.14382,0.268734 -0.41587,1.542988 -0.32942,1.542988 0.027,0 0.15009,-0.195319 0.27354,-0.434042 0.34542,-0.667972 1.32142,-1.539758 2.24679,-2.006884 1.34152,-0.677197 2.74444,-0.97039 4.70454,-0.983189 1.95433,-0.01276 1.99372,-0.07758 0.15447,-0.254143 -1.04354,-0.100174 -1.13731,-0.126346 -0.50882,-0.142023 0.95069,-0.02371 2.66524,0.261455 2.43342,0.404731 -0.0986,0.06093 0.07,0.143135 0.40259,0.196322 0.31471,0.05032 0.61837,0.166196 0.6748,0.257492 0.07,0.113312 0.023,0.135458 -0.14815,0.06978 -0.1379,-0.05292 -0.83945,-0.161862 -1.559,-0.242097 -3.32162,-0.370382 -6.69259,0.705673 -7.89433,2.519964 -0.5435,0.820535 -0.63832,1.289739 -0.44685,2.211032 0.34151,1.643156 1.65839,3.228956 3.4647,4.172224 0.90727,0.473781 1.29585,0.759571 1.18436,0.87106 -0.0198,0.0198 -0.67223,0.10365 -1.44985,0.186344 -1.80949,0.192423 -3.36489,0.503355 -3.8986,0.779347 -0.28806,0.148961 -0.47293,0.395213 -0.58997,0.785845 -0.0937,0.312896 -0.1442,0.591388 -0.11211,0.618869 0.0321,0.02748 2.20205,0.0018 4.82216,-0.05706 5.04557,-0.113349 6.03839,-0.225544 8.17878,-0.924234 1.15558,-0.377223 2.30036,-0.914638 2.98126,-1.399558 0.23301,-0.165946 0.54755,-0.365712 0.69897,-0.443924 0.15142,-0.07821 0.37671,-0.348723 0.50066,-0.601136 0.25738,-0.524159 0.45138,-0.615856 0.33128,-0.156587 -0.21155,0.808964 -1.96473,2.010985 -3.9833,2.731048 -2.18562,0.779652 -3.61089,0.966901 -7.85443,1.031897 -8.51759,0.13046 -14.52244,1.419877 -17.00435,3.65133 -1.02744,0.923756 -1.54769,1.939332 -1.54362,3.013299 0.0114,2.994023 3.56646,4.635401 10.72677,4.952498 0.50837,0.02251 -0.16354,0.04634 -1.49314,0.05295 -1.45283,0.0072 -2.83081,-0.0635 -3.45336,-0.177244 z m 4.5871,-25.94545 0.47059,-0.924324 -0.9723,0.924324 -0.9723,0.924324 0.31234,0.244526 c 0.29535,0.231234 0.32263,0.231234 0.50171,0 0.10416,-0.134489 0.40114,-0.660472 0.65996,-1.16885 z m -19.41988,-4.046099 c 0.38708,-0.200169 0.68249,-0.701389 0.75826,-1.286539 0.0246,-0.190234 -0.23905,-0.543286 -0.79631,-1.066231 l -0.83314,-0.781823 0.051,1.300363 c 0.0404,1.030955 0.10714,1.362336 0.32191,1.599494 0.29031,0.320568 0.13143,0.416966 -0.20005,0.121377 -0.16958,-0.151221 -0.17123,-0.140607 -0.011,0.0711 0.22721,0.300258 0.21215,0.299361 0.70933,0.04226 z m 1.28244,-1.286539 c -0.008,-0.243407 -0.0302,-0.233157 -0.15703,0.0711 -0.0815,0.195531 -0.21908,0.515489 -0.30577,0.711019 -0.28181,0.635563 -0.26064,0.649428 0.10857,0.0711 0.19972,-0.312848 0.35913,-0.696798 0.35423,-0.853222 z m -2.39499,-1.175302 c 0.0184,-0.56689 -0.009,-1.072953 -0.0604,-1.124585 -0.0516,-0.05163 -0.0939,0.439388 -0.0939,1.091155 0,1.439909 0.10795,1.463292 0.15432,0.03343 z m 27.29099,32.515263 c 4.15763,-0.23458 8.32879,-0.89031 10.4023,-1.6353 4.22588,-1.51831 7.91989,-4.597553 9.38088,-7.819688 0.24093,-0.531364 0.52166,-1.385418 0.62384,-1.897898 l 0.18579,-0.931781 0.01,0.924324 c 0.011,1.018381 -0.30717,1.959564 -1.14358,3.382817 -0.64567,1.09867 -3.06971,3.519162 -4.44348,4.436979 -1.26495,0.845109 -3.55143,1.969471 -4.87664,2.39806 -2.52967,0.818121 -6.21515,1.30761 -9.63547,1.279735 l -2.56557,-0.02091 z m -9.45654,-5.50848 0.2844,-0.12538 -0.2844,-0.06295 c -0.39845,-0.0882 2.57933,-0.780576 4.1239,-0.958871 0.70391,-0.08125 2.87963,-0.213502 4.83493,-0.293884 6.42679,-0.264205 8.32372,-0.485259 10.18901,-1.187353 4.2371,-1.59484 6.51805,-4.155905 6.53564,-7.338276 0.004,-0.691308 0.0506,-0.98675 0.13509,-0.853222 0.111,0.175417 0.13119,0.174138 0.14302,-0.0091 0.0288,-0.445289 0.42654,0.758758 0.50793,1.537478 0.36938,3.534002 -2.56354,6.600875 -7.62886,7.977309 -2.36359,0.642273 -3.3126,0.732417 -9.09971,0.864362 -4.89794,0.111673 -7.19587,0.234823 -9.45655,0.50679 -0.40343,0.04854 -0.48612,0.03198 -0.2844,-0.05695 z m 1.67089,-0.400097 c -0.0978,-0.03945 -0.25774,-0.03945 -0.35551,0 -0.0978,0.03945 -0.0178,0.07173 0.17776,0.07173 0.19553,0 0.27551,-0.03228 0.17775,-0.07173 z m 8.4326,-0.260283 c 3.73569,-0.0736 5.22154,-0.194657 7.17425,-0.584528 3.42307,-0.68344 6.34747,-2.178889 7.60146,-3.887154 1.08984,-1.484669 1.57111,-3.280721 1.24076,-4.630402 l -0.13922,-0.568815 -0.0143,0.751056 c -0.0542,2.850703 -2.40882,5.495995 -6.28234,7.057925 -2.12321,0.856147 -3.94224,1.083757 -10.93859,1.368706 -3.06149,0.12469 -6.20791,0.418121 -6.75467,0.629932 -0.0782,0.0303 0.88166,0.02835 2.13305,-0.0043 1.2514,-0.03268 3.94221,-0.09226 5.97959,-0.132393 z m 19.73577,-8.008177 c -0.57105,-3.05457 -3.40414,-6.012116 -5.18163,-5.409238 -1.27792,0.433437 -1.88814,1.34753 -1.8985,2.843915 -0.004,0.520325 -0.0625,0.911567 -0.13092,0.869426 -0.0684,-0.04214 -0.094,-0.499857 -0.0569,-1.017147 0.11214,-1.562118 0.72645,-2.440312 1.99483,-2.851732 0.8531,-0.276719 1.77211,0.01771 2.89621,0.927874 l 0.5859,0.474394 0.43727,-0.954263 c 1.14002,-2.487917 1.51284,-4.313953 1.41087,-6.910267 -0.0597,-1.519301 -0.15242,-2.128917 -0.50016,-3.287238 -0.81713,-2.721847 -2.03283,-4.810836 -3.85445,-6.623279 -2.18046,-2.169474 -4.41288,-3.306628 -7.69526,-3.91982 -1.95654,-0.365507 -7.12934,-0.36214 -10.00656,0.0065 -1.82711,0.234106 -2.26885,0.247231 -3.25257,0.09664 -1.55583,-0.23817 -2.77679,-0.623478 -4.37413,-1.380379 -1.04382,-0.494616 -1.44159,-0.766981 -1.74973,-1.198076 -0.24176,-0.338213 -0.57776,-0.609694 -0.85323,-0.689371 l -0.45442,-0.131438 0.52657,-0.01282 c 0.45238,-0.01102 0.59251,0.06924 0.99476,0.569793 0.96844,1.205084 4.64145,2.553828 7.01089,2.574421 0.6257,0.0054 1.96913,-0.09475 2.98541,-0.222641 2.13505,-0.268679 6.59445,-0.311408 8.26407,-0.07919 3.60194,0.500983 6.20782,1.674162 8.50363,3.82836 1.96193,1.840917 3.54555,4.439767 4.27734,7.01944 0.32699,1.152668 0.35749,1.498705 0.35749,4.055664 0,3.15883 -0.11883,3.803376 -1.13626,6.163325 l -0.5682,1.317953 0.43054,0.599511 c 0.23679,0.329732 0.6235,1.011883 0.85936,1.515891 0.36075,0.770909 0.42205,1.058761 0.38614,1.813303 l -0.0427,0.896924 z m -8.72253,-5.858962 c -0.0995,-0.24033 -0.35164,-0.674326 -0.5602,-0.964436 -0.54631,-0.759896 -0.65787,-1.022997 -0.22367,-0.527472 0.40906,0.466828 1.12478,1.76896 1.02639,1.867348 -0.0338,0.03384 -0.14297,-0.135112 -0.24252,-0.37544 z m 2.97363,-3.114524 c 1.59818,-0.912354 2.46455,-1.702316 3.60701,-3.288877 0.24446,-0.339492 0.2449,-0.335041 0.0145,0.14767 -0.49132,1.029372 -2.95494,3.12314 -4.10606,3.489634 -0.15643,0.0498 0.0616,-0.10699 0.48455,-0.348427 z m -8.03871,-1.258611 c -0.31547,-0.294178 -0.95256,-0.74715 -1.41574,-1.006603 -0.46319,-0.259455 -0.71417,-0.431605 -0.55775,-0.382555 0.71867,0.225353 3.07832,1.904924 2.69558,1.918685 -0.0817,0.0029 -0.40661,-0.23535 -0.72209,-0.529527 z M 217.1965,44.513796 c -0.82801,-0.496265 -0.76709,-0.593487 0.0711,-0.113485 0.80765,0.462504 0.83028,0.478775 0.66361,0.477055 -0.0717,-7.12e-4 -0.40231,-0.164347 -0.73472,-0.36357 z m -9.7054,-2.866316 c 0,-0.08258 0.13178,-0.301221 0.29285,-0.485862 l 0.29285,-0.335712 -0.24981,0.426611 c -0.32878,0.561481 -0.33589,0.569834 -0.33589,0.394963 z m -2.70187,-1.817 c -0.19553,-0.111775 -0.29151,-0.203228 -0.2133,-0.203228 0.0782,0 0.30218,0.09145 0.49771,0.203228 0.19553,0.111775 0.29152,0.203227 0.21331,0.203227 -0.0782,0 -0.30219,-0.09145 -0.49772,-0.203227 z m -1.58463,-0.828685 c -0.97227,-0.58547 -1.49579,-0.948861 -1.36698,-0.948861 0.084,0 0.46699,0.231402 2.04551,1.235919 0.60803,0.386931 0.0456,0.148984 -0.67853,-0.287058 z m -2.77905,-4.354672 c -0.58325,-0.355627 -0.75565,-0.692416 -0.75565,-1.476137 0,-0.548331 0.0683,-0.694491 0.50266,-1.075876 0.72215,-0.634058 1.48105,-0.619126 2.14233,0.04215 0.40259,0.402588 0.48349,0.587657 0.48349,1.105988 0,0.746727 -0.29601,1.214539 -0.93834,1.48292 -0.63234,0.26421 -0.89531,0.24972 -1.43449,-0.07905 z m 1.38025,-0.221855 c 0.82927,-0.42883 0.9661,-1.397827 0.2925,-2.071421 -0.52992,-0.52992 -1.11385,-0.546181 -1.70647,-0.04752 -0.88624,0.745721 -0.35341,2.267779 0.81382,2.324706 0.10165,0.005 0.37172,-0.08764 0.60015,-0.205763 z m 8.45827,-2.404644 c 0.15643,-0.128204 0.40425,-0.375179 0.55073,-0.548834 l 0.26631,-0.315735 -0.20564,0.345085 c -0.11309,0.189797 -0.36092,0.436772 -0.55072,0.548833 -0.32916,0.194347 -0.33196,0.192993 -0.0607,-0.02935 z m -0.81001,-0.245861 c 0.2584,-0.165454 0.62635,-0.531184 0.81767,-0.812735 0.19132,-0.281551 0.34785,-0.434188 0.34785,-0.339194 0,0.247536 -1.19222,1.458005 -1.43321,1.455149 -0.11117,-0.0013 0.009,-0.137767 0.26769,-0.30322 z m -2.71681,-0.08976 c -0.69255,-0.765253 0.58441,-2.018224 2.05998,-2.021289 0.53227,-0.0011 1.10242,0.237106 1.20455,0.503275 0.19677,0.512777 -1.2722,1.562131 -2.40395,1.717255 -0.49018,0.06719 -0.65374,0.02932 -0.86058,-0.199241 z m 1.88487,-0.455875 c 0.27738,-0.142283 0.65702,-0.422304 0.84365,-0.62227 l 0.33932,-0.363574 -0.36384,-0.165778 c -0.78318,-0.35684 -2.23079,0.173076 -2.51443,0.92044 -0.26573,0.700162 0.56119,0.812927 1.6953,0.231182 z"
     style="fill:#000000;stroke-width:0.142204" />
</svg>
