<?xml version="1.0" encoding="UTF-8" standalone="no"?>
<svg
   xmlns:dc="http://purl.org/dc/elements/1.1/"
   xmlns:cc="http://creativecommons.org/ns#"
   xmlns:rdf="http://www.w3.org/1999/02/22-rdf-syntax-ns#"
   xmlns:svg="http://www.w3.org/2000/svg"
   xmlns="http://www.w3.org/2000/svg"
   xmlns:sodipodi="http://sodipodi.sourceforge.net/DTD/sodipodi-0.dtd"
   xmlns:inkscape="http://www.inkscape.org/namespaces/inkscape"
   inkscape:version="1.0 (4035a4fb49, 2020-05-01)"
   sodipodi:docname="That's The Fox.svg"
   id="svg45"
   version="1.1"
   fill="none"
   viewBox="0 0 348 348">
  <metadata
     id="metadata49">
    <rdf:RDF>
      <cc:Work
         rdf:about="">
        <dc:format>image/svg+xml</dc:format>
        <dc:type
           rdf:resource="http://purl.org/dc/dcmitype/StillImage" />
        <dc:title></dc:title>
      </cc:Work>
    </rdf:RDF>
  </metadata>
  <sodipodi:namedview
     inkscape:current-layer="svg45"
     inkscape:window-maximized="1"
     inkscape:window-y="-9"
     inkscape:window-x="2391"
     inkscape:cy="151.69044"
     inkscape:cx="159.60672"
     inkscape:zoom="1.1925287"
     showgrid="true"
     id="namedview47"
     inkscape:window-height="1001"
     inkscape:window-width="1920"
     inkscape:pageshadow="2"
     inkscape:pageopacity="0"
     guidetolerance="10"
     gridtolerance="10"
     objecttolerance="10"
     borderopacity="1"
     bordercolor="#666666"
     pagecolor="#ffffff" />
  <defs
     id="defs7">
    <linearGradient
       id="a">
      <stop
         id="stop2"
         offset="0" />
      <stop
         id="stop4"
         offset="1"
         stop-opacity="0" />
    </linearGradient>
  </defs>
  <path
     id="path9"
     stroke="#000"
     stroke-width="2"
     d="M5 5.8h337v337.6H5z" />
  <path
     id="path11"
     stroke="#000"
     stroke-width="2"
     d="M282.7 40.6c0-8.4 7-15.2 15.6-15.2 4.1 0 8 1.6 11 4.4a15 15 0 014.6 10.8c0 8.3-7 15.1-15.6 15.1s-15.6-6.8-15.6-15.1z" />
  <path
     id="path888"
     d="m 216.86345,71.170118 c -2.59199,-1.35054 -5.20848,-4.13121 -6.37486,-6.77488 -0.69824,-1.58261 -1.17773,-2.01143 -2.67357,-2.39112 -1.18567,-0.30095 -2.44358,-0.3009 -3.59905,1.6e-4 -3.97211,1.03495 -4.38303,1.03526 -4.38303,0.003 0,-1.33293 0.49809,-2.50334 0.94721,-2.22576 0.20567,0.12711 1.13622,-0.0874 2.0679,-0.47667 2.04305,-0.85364 5.94826,-0.9224 7.67609,-0.13515 0.82771,0.37714 1.65094,1.46386 2.41125,3.18306 0.63495,1.43573 1.51905,3.0136 1.96467,3.50637 0.86229,0.95355 3.35798,2.332 5.31274,2.93442 1.05393,0.3248 0.96821,0.12962 -0.77558,-1.76599 -1.07824,-1.17213 -2.122,-2.64207 -2.31945,-3.26653 -0.19746,-0.62446 -0.83843,-1.77522 -1.42438,-2.55724 -0.58596,-0.78201 -1.59531,-2.91479 -2.24301,-4.7395 -0.93405,-2.63141 -1.43672,-3.41076 -2.43019,-3.76781 -1.67084,-0.6005 -6.56538,0.25548 -9.57187,1.67396 -1.27947,0.60366 -2.53958,1.19293 -2.80026,1.30949 -0.26067,0.11656 -0.0746,-0.23812 0.41351,-0.78819 1.54916,-1.74581 4.86855,-2.68099 9.53837,-2.68727 l 4.26448,-0.006 1.27802,3.64946 c 2.19075,6.25585 1.92734,6.06652 8.44011,6.06652 6.39807,0 6.33027,0.0428 8.10534,-5.11654 1.69244,-4.91916 1.80097,-4.99758 6.54231,-4.72724 4.31222,0.24587 7.73283,1.36904 9.04986,2.97155 0.39101,0.47576 0.49765,0.76613 0.23698,0.64527 -0.26067,-0.12087 -1.52079,-0.71366 -2.80026,-1.31732 -3.00736,-1.4189 -7.90034,-2.27429 -9.57543,-1.67397 -0.99562,0.35682 -1.51406,1.15524 -2.50005,3.85023 -0.68417,1.87004 -1.69262,4.00694 -2.24101,4.74867 -0.54839,0.74173 -1.15792,1.8554 -1.35451,2.47482 -0.1966,0.61942 -1.23966,2.08523 -2.3179,3.25736 -1.75546,1.90831 -1.83656,2.09505 -0.77558,1.78586 3.1309,-0.9124 5.43681,-2.87791 6.96819,-5.93954 0.83477,-1.66893 2.0078,-3.30639 2.60673,-3.63882 1.49097,-0.82752 5.73322,-0.78952 7.78984,0.0698 0.93167,0.38928 1.86222,0.60378 2.06789,0.47667 0.44171,-0.27299 0.94721,0.88612 0.94721,2.17197 0,1.09511 -0.66326,1.13474 -3.31765,0.19821 -4.08912,-1.44272 -5.78855,-0.94115 -7.36733,2.17442 -2.75965,5.4459 -6.72835,8.03006 -12.27617,7.99344 -2.56833,-0.017 -3.8447,-0.28343 -5.50756,-1.14985 z m 10.82917,-0.99811 c 2.58253,-1.28693 4.52145,-3.38134 6.20321,-6.70069 0.55689,-1.09915 1.42436,-2.21886 1.92772,-2.48824 1.30263,-0.69715 4.32145,-0.6057 6.60532,0.2001 2.42535,0.85571 2.57239,0.25384 0.21288,-0.87134 -2.36693,-1.12871 -5.7873,-1.43762 -7.26202,-0.65588 -0.65139,0.3453 -1.683,1.68802 -2.29246,2.98383 -2.25625,4.79713 -5.53664,6.98752 -10.50337,7.01337 -4.92342,0.0256 -8.2352,-2.18517 -10.50606,-7.01337 -1.34443,-2.85845 -2.73027,-3.68962 -5.64439,-3.38527 -2.12342,0.22176 -5.65261,1.59072 -5.65261,2.19262 0,0.16739 1.23819,0.002 2.75152,-0.36785 4.21411,-1.0295 6.37969,-0.29293 7.88758,2.68274 1.71702,3.38837 3.49633,5.26681 6.16677,6.51033 3.3141,1.54324 6.87867,1.50785 10.10591,-0.10035 z m -2.80068,-4.21772 c 1.07589,-1.1672 1.95616,-2.34022 1.95616,-2.60672 0,-0.2942 -1.67567,-0.48454 -4.26555,-0.48454 -2.58988,0 -4.26555,0.19034 -4.26555,0.48454 0,0.57107 3.75044,4.72891 4.26555,4.72891 0.19428,0 1.2335,-0.95498 2.30939,-2.12219 z m -28.8506,-6.62811 c 0,-1.33313 1.93873,-5.8592 3.33603,-7.7881 l 1.40941,-1.94566 h -1.18784 c -1.48011,0 -1.55252,-1.05487 -0.2222,-3.23688 l 0.9621,-1.57807 -1.41748,-1.61442 c -2.31811,-2.64018 -4.44251,-11.37139 -4.20616,-17.28716 l 0.14126,-3.5356 1.60594,-0.15341 c 1.99954,-0.19101 10.67376,4.02956 15.13546,7.36437 l 2.99683,2.23993 8.00003,0.0161 8.00003,0.0161 2.98467,-2.25328 c 4.0619,-3.06654 12.78429,-7.46677 14.80104,-7.46677 1.92933,0 2.16515,0.49681 2.16515,4.56127 0,5.75057 -2.37775,14.54871 -4.54255,16.80826 l -1.20519,1.25795 0.9763,1.6014 c 1.33189,2.18467 1.27482,3.26023 -0.17298,3.26023 h -1.15283 l 1.5828,2.35203 c 1.94529,2.89069 3.40052,7.00864 2.71797,7.6912 -0.32283,0.32282 -1.07417,0.27669 -2.30349,-0.14142 -2.5068,-0.85261 -3.00928,-1.29824 -3.00928,-2.66886 0,-1.23619 0.23725,-1.26167 3.19917,-0.34366 0.68859,0.21343 1.06638,0.13312 1.06638,-0.22668 0,-0.31162 -0.26111,-0.40694 -0.59243,-0.21626 -0.32585,0.18751 -0.4446,0.17667 -0.2639,-0.0241 0.32502,-0.36112 -1.41357,-3.49474 -2.85265,-5.14162 -1.26666,-1.44955 -1.09884,-2.22853 0.48008,-2.22853 h 1.42673 l -0.99471,-1.68592 c -1.29883,-2.20134 -1.25775,-2.71739 0.34389,-4.32049 2.56932,-2.57164 5.69432,-18.22543 3.86419,-19.35651 -1.34874,-0.83357 -11.19058,4.15196 -16.06432,8.13762 -1.41206,1.15476 -2.84854,1.99167 -3.19217,1.85981 -1.45713,-0.55915 -9.17299,-0.78097 -12.01357,-0.34537 -2.76108,0.42341 -3.2036,0.3764 -4.26555,-0.45317 -5.52353,-4.31485 -13.82442,-8.91266 -16.42321,-9.09671 -1.31339,-0.093 -1.35387,-0.0262 -1.49584,2.46916 -0.28009,4.92332 2.4636,15.48731 4.42258,17.02825 1.43288,1.1271 1.46661,1.89515 0.17904,4.07741 l -0.99471,1.68592 h 1.42673 c 1.57893,0 1.74674,0.77898 0.48009,2.22852 -1.43909,1.64688 -3.17767,4.78051 -2.85265,5.14163 0.18069,0.20076 0.0619,0.21161 -0.2639,0.0241 -0.33133,-0.19068 -0.59244,-0.0954 -0.59244,0.21626 0,0.3598 0.37779,0.44011 1.06639,0.22668 2.9755,-0.92223 3.19916,-0.8961 3.19916,0.37372 0,1.33658 -0.39239,1.68989 -2.8437,2.56049 -2.17743,0.77332 -2.8437,0.75229 -2.8437,-0.0897 z m 4.62101,-1.8269 c 1.31676,-0.84369 0.47341,-1.14854 -1.27614,-0.4613 -2.34105,0.91959 -3.08216,2.16289 -0.81481,1.36695 0.82418,-0.28933 1.76511,-0.69687 2.09095,-0.90565 z m 47.03956,0.69614 c 0,-0.22113 -0.85311,-0.73717 -1.8958,-1.14675 -1.04269,-0.40958 -1.8958,-0.57468 -1.8958,-0.3669 0,0.54215 1.02999,1.30168 2.13278,1.57275 1.51049,0.37129 1.65882,0.366 1.65882,-0.0591 z m -35.44081,-7.91894 c -0.85012,-0.59545 -1.05335,-1.19586 -1.05335,-3.11184 0,-3.23856 0.59635,-4.20752 2.58955,-4.20752 2.26482,0 3.09785,1.02869 3.09785,3.82546 0,3.61736 -2.14684,5.236 -4.63405,3.4939 z m 3.11741,-1.2528 c 1.27603,-1.27603 0.33843,-5.11866 -1.24895,-5.11866 -1.29593,0 -1.97391,0.97673 -1.97391,2.8437 0,1.83004 0.67577,2.8437 1.8958,2.8437 0.41707,0 1.01425,-0.25593 1.32706,-0.56874 z m 13.83934,1.04269 c -0.69146,-0.69146 -0.9479,-1.57983 -0.9479,-3.28379 0,-2.79677 0.83304,-3.82546 3.09786,-3.82546 1.99319,0 2.58955,0.96896 2.58955,4.20752 0,1.91598 -0.20324,2.51639 -1.05336,3.11184 -1.41772,0.993 -2.54743,0.92861 -3.68615,-0.21011 z m 3.22287,-1.04269 c 0.3128,-0.3128 0.56874,-1.33654 0.56874,-2.27496 0,-2.67365 -2.2107,-3.96415 -3.30098,-1.92695 -1.11787,2.08875 -0.32792,4.77065 1.40517,4.77065 0.41708,0 1.01426,-0.25593 1.32707,-0.56874 z m -31.67282,-9.5027 c -1.46772,-3.38915 -2.81279,-8.69668 -2.82264,-11.13783 -0.007,-1.66526 0.14779,-2.01429 0.89165,-2.01429 2.02691,0 12.37084,6.33933 12.37084,7.58154 0,0.40986 -0.61377,1.10775 -1.36393,1.55089 -0.75017,0.44313 -2.55177,2.0887 -4.00357,3.65681 -1.4518,1.56812 -2.94454,2.85112 -3.31721,2.85112 -0.37266,0 -1.16248,-1.11971 -1.75514,-2.48824 z m 4.07468,-0.96743 c 1.02445,-1.1186 2.60911,-2.61847 3.52146,-3.33304 l 1.65883,-1.29922 -1.37511,-1.12602 c -1.40534,-1.15076 -7.43775,-4.7089 -8.93331,-5.26919 -0.68228,-0.25561 -0.82941,-0.0406 -0.82941,1.21191 0,2.9058 2.84145,11.84938 3.76464,11.84938 0.18165,0 1.16846,-0.91522 2.1929,-2.03382 z m 34.39381,0.57719 c -1.39763,-1.54981 -3.15717,-3.18173 -3.91009,-3.62649 -0.75292,-0.44476 -1.36894,-1.14399 -1.36894,-1.55385 0,-1.24221 10.34392,-7.58154 12.37083,-7.58154 0.72502,0 0.89841,0.3452 0.89277,1.77732 -0.0174,4.41495 -3.21424,13.88949 -4.66734,13.83272 -0.42684,-0.0167 -1.9196,-1.29835 -3.31723,-2.84816 z m 4.61197,-0.87415 c 1.15668,-2.68879 2.41449,-7.71398 2.4247,-9.68717 0.006,-1.09328 -0.15274,-1.29423 -0.82241,-1.04334 -1.49556,0.56029 -7.52796,4.11843 -8.9333,5.26919 l -1.37512,1.12602 1.65883,1.29922 c 0.91235,0.71457 2.49701,2.21444 3.52146,3.33304 1.02445,1.1186 2.01125,2.03382 2.1929,2.03382 0.18165,0 0.78147,-1.04885 1.33294,-2.33078 z"
     style="fill:#000000;stroke-width:0.47395" />
  <path
     sodipodi:nodetypes="ccccccccc"
     id="path892"
     d="m 139.48716,57.548105 h 10 v 10 l 20,-20 -20,-20 v 10 h -20 v 20 c 10,0 0,0 10,0 z"
     style="fill:none;stroke:#000000;stroke-width:1px;stroke-linecap:butt;stroke-linejoin:miter;stroke-opacity:1" />
  <path
     style="fill:none;stroke:#000000;stroke-width:1.04857px;stroke-linecap:butt;stroke-linejoin:miter;stroke-opacity:1"
     d="M 96.739578,36.469505 H 86.253924 V 25.983851 L 65.28262,46.955158 86.253924,67.926465 V 57.440811 H 107.22523 V 36.469505 c -10.485652,0 0,0 -10.485652,0 z"
     id="path894"
     sodipodi:nodetypes="ccccccccc" />
  <rect
     ry="23.479519"
     y="111.5277"
     x="185.32048"
     height="187.23967"
     width="115.72048"
     id="rect896"
     style="fill:#ffffff;stroke:#000000;stroke-width:5;stroke-linejoin:round;stroke-opacity:1" />
</svg>
