<?xml version="1.0" encoding="UTF-8" standalone="no"?>
<svg
   xmlns:dc="http://purl.org/dc/elements/1.1/"
   xmlns:cc="http://creativecommons.org/ns#"
   xmlns:rdf="http://www.w3.org/1999/02/22-rdf-syntax-ns#"
   xmlns:svg="http://www.w3.org/2000/svg"
   xmlns="http://www.w3.org/2000/svg"
   xmlns:sodipodi="http://sodipodi.sourceforge.net/DTD/sodipodi-0.dtd"
   xmlns:inkscape="http://www.inkscape.org/namespaces/inkscape"
   inkscape:version="1.0 (4035a4fb49, 2020-05-01)"
   sodipodi:docname="That's The Mole.svg"
   id="svg45"
   version="1.1"
   fill="none"
   viewBox="0 0 348 348">
  <metadata
     id="metadata49">
    <rdf:RDF>
      <cc:Work
         rdf:about="">
        <dc:format>image/svg+xml</dc:format>
        <dc:type
           rdf:resource="http://purl.org/dc/dcmitype/StillImage" />
        <dc:title></dc:title>
      </cc:Work>
    </rdf:RDF>
  </metadata>
  <sodipodi:namedview
     inkscape:current-layer="svg45"
     inkscape:window-maximized="1"
     inkscape:window-y="-9"
     inkscape:window-x="2391"
     inkscape:cy="101.28448"
     inkscape:cx="197.11571"
     inkscape:zoom="1.6864903"
     showgrid="true"
     id="namedview47"
     inkscape:window-height="1001"
     inkscape:window-width="1920"
     inkscape:pageshadow="2"
     inkscape:pageopacity="0"
     guidetolerance="10"
     gridtolerance="10"
     objecttolerance="10"
     borderopacity="1"
     bordercolor="#666666"
     pagecolor="#ffffff" />
  <defs
     id="defs7">
    <linearGradient
       id="a">
      <stop
         id="stop2"
         offset="0" />
      <stop
         id="stop4"
         offset="1"
         stop-opacity="0" />
    </linearGradient>
  </defs>
  <path
     id="path930"
     d="m 209.97285,76.512337 c -1.70097,-0.922725 -3.95608,-3.316094 -5.22405,-5.544311 -0.74593,-1.310838 -1.17612,-1.787876 -2.06119,-2.285629 -0.61518,-0.34597 -1.60153,-0.997731 -2.19188,-1.448353 l -1.07336,-0.819315 -0.64345,0.45818 c -0.89167,0.634925 -2.61902,2.519024 -3.53693,3.857894 -0.53261,0.776869 -0.92987,1.119431 -1.29818,1.119431 -0.65034,0 -1.09633,-0.414451 -1.09633,-1.018802 0,-0.650833 1.83067,-3.117404 3.4747,-4.681669 l 1.40893,-1.340581 -0.74206,-0.719236 -0.74206,-0.719238 -1.28733,0.84004 c -0.70803,0.462021 -1.87369,1.415451 -2.59035,2.118735 -0.71666,0.703283 -1.51735,1.278696 -1.77931,1.278696 -0.61419,0 -1.04189,-0.434945 -1.04189,-1.059542 0,-0.616988 1.99896,-2.652748 3.75353,-3.822643 0.72235,-0.481638 1.40226,-0.946989 1.5109,-1.034114 0.10865,-0.08713 -0.0873,-0.58884 -0.43545,-1.114923 l -0.63299,-0.956513 -1.18973,0.468948 c -0.65435,0.257921 -1.38635,0.574174 -1.62666,0.702783 -0.68228,0.365147 -1.3796,-0.129479 -1.3796,-0.97859 0,-0.641575 0.14908,-0.779362 1.59077,-1.470211 l 1.59077,-0.762288 -0.51732,-1.450912 c -1.87748,-5.265686 -1.72345,-12.019893 0.38987,-17.096335 3.38377,-8.128169 11.8004,-14.421836 19.09412,-14.277929 1.10437,0.02179 1.58373,0.07466 1.06525,0.117485 -7.56801,0.625147 -14.72626,5.19109 -18.37933,11.723383 -3.11881,5.57696 -3.80473,12.798333 -1.78693,18.812791 0.27229,0.811602 0.57298,1.594112 0.66821,1.738915 0.12497,0.190034 0.7632,0.141588 2.29417,-0.174146 1.16656,-0.240583 3.16393,-0.508149 4.4386,-0.594588 2.05874,-0.13961 2.33855,-0.212281 2.50544,-0.650695 0.55988,-1.470853 1.01476,-2.349627 1.10066,-2.126349 0.0534,0.138899 -0.16286,0.840469 -0.48065,1.559042 l -0.57779,1.306499 -2.19695,0.164613 c -3.48828,0.261371 -6.53358,0.965619 -8.48183,1.961486 -0.99985,0.511082 -1.75999,1.057002 -1.80409,1.29565 -0.10281,0.556511 0.355,0.522252 1.87332,-0.14019 1.72081,-0.750787 5.78181,-1.554638 8.21885,-1.626873 l 2.00319,-0.05938 0.0747,0.649433 c 0.0447,0.388709 -0.0499,0.684962 -0.23567,0.737936 -4.96309,1.415286 -7.7669,2.859849 -10.48388,5.401448 -1.5044,1.407292 -1.7862,1.950749 -1.14011,2.198678 0.22402,0.08597 0.98909,-0.459845 2.10388,-1.500933 1.87775,-1.753616 3.90966,-2.891839 7.03567,-3.941203 2.45534,-0.824234 2.76324,-0.801496 2.76324,0.204054 0,0.755143 -0.1043,0.860789 -1.73162,1.753911 -3.69745,2.029283 -8.63732,7.812015 -6.67337,7.812015 0.18128,0 0.62781,-0.450646 0.99231,-1.001434 1.17356,-1.773374 3.00138,-3.519835 5.14043,-4.911614 1.1482,-0.747082 2.21169,-1.310726 2.3633,-1.252546 0.15162,0.05818 0.56058,1.031418 0.9088,2.162752 1.2319,4.002259 4.18007,8.157528 6.80935,9.597355 0.69525,0.380724 1.84737,0.819463 2.56027,0.974977 l 1.29618,0.282749 -1.29618,0.01348 c -1.02474,0.01065 -1.58407,-0.142698 -2.67089,-0.732269 z m -6.89714,-9.633742 c -0.31117,-0.919743 -0.56577,-1.82118 -0.56577,-2.003192 0,-0.182013 -0.0639,-0.33093 -0.14202,-0.33093 -0.28978,0 -2.44987,1.302782 -2.4501,1.477694 -2e-4,0.148321 3.44462,2.528691 3.65947,2.528691 0.0353,0 -0.19041,-0.752519 -0.50158,-1.672263 z m -2.87111,-3.51247 c 1.69129,-0.986125 2.21313,-1.623225 1.62653,-1.985765 -0.22078,-0.136451 -2.36311,0.514427 -3.98845,1.211762 l -0.98009,0.420498 0.61055,0.776987 c 0.3358,0.427342 0.67851,0.745496 0.76157,0.707009 0.0831,-0.03849 0.96951,-0.547209 1.96989,-1.130491 z m -1.2297,-3.283636 c 2.07164,-0.727882 2.7102,-1.050144 2.7102,-1.367754 0,-0.358545 -0.19385,-0.405868 -1.41402,-0.345183 -1.54768,0.07698 -5.24454,0.6945 -5.6788,0.94859 -0.43335,0.253552 0.78061,2.005898 1.27786,1.844586 0.21701,-0.0704 1.61415,-0.556503 3.10476,-1.080239 z m 17.39801,16.935982 c 4.05119,-0.797245 7.93545,-5.082366 9.64683,-10.642418 0.34823,-1.131334 0.75719,-2.104573 0.9088,-2.162752 0.15162,-0.05818 1.2151,0.505464 2.3633,1.252546 2.14327,1.394526 3.96703,3.13847 5.1474,4.922137 0.42496,0.64216 0.79192,0.965053 1.00418,0.883601 0.18398,-0.0706 0.37885,-0.12836 0.43306,-0.12836 0.30869,0 -0.0231,-0.699871 -0.94309,-1.989064 -1.45755,-2.042573 -4.34277,-4.644221 -6.27846,-5.661402 -1.54064,-0.809582 -1.63534,-0.906366 -1.63534,-1.671339 0,-0.968008 0.19921,-1.001169 2.23886,-0.372688 3.57439,1.101384 5.71569,2.304202 7.93469,4.457108 0.89017,0.863662 1.46028,1.248423 1.7086,1.153132 0.65061,-0.249663 0.41002,-0.757442 -0.99294,-2.095641 -2.46887,-2.354899 -5.67928,-4.139213 -9.16595,-5.09434 -1.51286,-0.414427 -1.60542,-0.479152 -1.60542,-1.12261 v -0.682825 l 2.00319,0.0639 c 2.51041,0.08008 6.58521,0.894421 8.11579,1.621919 2.62249,1.24649 2.78174,0.178817 0.17228,-1.155033 -1.94825,-0.995867 -4.99355,-1.700115 -8.48183,-1.961486 l -2.19695,-0.164613 -0.57522,-1.30068 c -0.31637,-0.715376 -0.52219,-1.353708 -0.45739,-1.418517 0.0648,-0.06481 0.3757,0.465242 0.69087,1.177891 l 0.57303,1.295726 2.31698,0.157123 c 1.27433,0.08642 3.27143,0.353965 4.438,0.594548 1.53096,0.315734 2.16919,0.36418 2.29417,0.174146 0.0952,-0.144803 0.39591,-0.927313 0.6682,-1.738915 2.01781,-6.014458 1.33189,-13.235831 -1.78693,-18.812791 -3.65306,-6.532293 -10.81132,-11.098236 -18.37933,-11.723383 -0.51847,-0.04283 -0.0391,-0.0957 1.06525,-0.117485 7.29373,-0.143907 15.71035,6.14976 19.09412,14.277929 2.12052,5.093713 2.2688,12.023686 0.36613,17.111366 l -0.53223,1.423176 1.42929,0.675946 c 1.54988,0.73298 1.7818,0.96074 1.7873,1.755213 0.006,0.884704 -0.77559,1.096143 -1.9964,0.539997 -2.21951,-1.011103 -2.13494,-1.011334 -2.80928,0.0077 -0.33612,0.507899 -0.61112,0.968676 -0.61112,1.023947 0,0.05527 0.4845,0.384427 1.07666,0.731456 0.59216,0.347028 1.81175,1.324414 2.7102,2.171967 1.63409,1.541516 1.96391,2.237627 1.35074,2.850797 -0.5371,0.537099 -1.26688,0.284732 -2.31941,-0.802075 -0.57787,-0.596683 -1.73655,-1.549592 -2.57486,-2.117578 l -1.52419,-1.032697 -0.74087,0.718078 -0.74087,0.718079 1.40894,1.340581 c 1.64402,1.564253 3.47469,4.030824 3.47469,4.681657 0,0.604351 -0.44599,1.018802 -1.09633,1.018802 -0.36831,0 -0.76557,-0.342562 -1.29818,-1.119431 -0.91791,-1.33887 -2.64525,-3.222969 -3.53692,-3.857894 l -0.64346,-0.45818 -1.07336,0.819315 c -0.59035,0.450622 -1.57669,1.102383 -2.19187,1.448353 -0.89284,0.502123 -1.30872,0.967283 -2.0612,2.305458 -1.16868,2.078326 -3.83392,4.836701 -5.47149,5.662669 -0.90182,0.454871 -1.56121,0.613232 -2.47453,0.594291 l -1.2451,-0.02582 z m 11.64828,-9.926213 c 0.7453,-0.503612 1.35499,-0.991245 1.35486,-1.08363 -2.4e-4,-0.1823 -2.35736,-1.562356 -2.43911,-1.428074 -0.0274,0.04496 -0.3281,0.955038 -0.66827,2.022386 -0.71239,2.235256 -0.79655,2.21176 1.75252,0.489318 z m 3.87846,-3.41846 0.5607,-0.727074 -2.05256,-0.742699 c -2.57244,-0.930819 -3.01627,-0.983946 -3.08892,-0.369753 -0.0426,0.360447 0.37304,0.727981 1.76676,1.562176 1.00238,0.599961 1.91944,1.071397 2.03791,1.047632 0.11848,-0.02376 0.46772,-0.37039 0.77611,-0.770282 z m 2.51096,-3.312462 c 0.682,-1.069679 0.65647,-1.089768 -1.97766,-1.555755 -3.87853,-0.686124 -5.75924,-0.640138 -4.99693,0.122178 0.12868,0.128678 1.319,0.597993 2.64515,1.042924 1.32616,0.44493 2.585,0.910465 2.79743,1.034521 0.66434,0.387972 0.95093,0.267523 1.53201,-0.643868 z m -21.1777,15.524103 c -1.75339,-0.460385 -3.74439,-2.159104 -4.59847,-3.923399 -0.48771,-1.007469 -0.66407,-3.324241 -0.23276,-3.057677 0.12962,0.08011 0.23567,0.542775 0.23567,1.028149 0,1.207484 1.02366,3.162602 2.16931,4.143234 1.02036,0.873394 2.67075,1.545203 3.79599,1.545203 2.83394,0 6.05386,-3.015264 6.05386,-5.669075 0,-0.496023 0.10605,-0.967402 0.23567,-1.047511 0.36176,-0.223583 0.28674,1.896109 -0.0999,2.821374 -0.4486,1.073629 -2.11252,2.848092 -3.3516,3.574237 -1.08358,0.635022 -3.00232,0.901991 -4.20781,0.585465 z m -4.24205,-7.80592 c 0.2346,-0.259237 0.47958,-0.47134 0.54439,-0.47134 0.0648,0 -0.0741,0.212103 -0.30872,0.47134 -0.23461,0.259236 -0.47958,0.471339 -0.54439,0.471339 -0.0648,0 0.0741,-0.212103 0.30872,-0.471339 z m 11.05408,-0.05892 -0.44894,-0.530257 0.53025,0.448949 c 0.49831,0.421901 0.63755,0.611565 0.44895,0.611565 -0.0447,0 -0.28334,-0.238615 -0.53026,-0.530257 z m -12.07738,-3.711798 c 0,-0.324045 0.0535,-0.45661 0.11886,-0.294587 0.0654,0.162023 0.0654,0.427152 0,0.589175 -0.0654,0.162022 -0.11886,0.02946 -0.11886,-0.294588 z m 13.1975,0 c 0,-0.324045 0.0535,-0.45661 0.11887,-0.294587 0.0654,0.162023 0.0654,0.427152 0,0.589175 -0.0654,0.162022 -0.11887,0.02946 -0.11887,-0.294588 z M 208.18462,62.99298 c 0.0113,-0.274544 0.0671,-0.330386 0.14238,-0.142385 0.0681,0.170123 0.0597,0.373388 -0.0186,0.451701 -0.0783,0.07831 -0.13401,-0.06088 -0.12378,-0.309316 z m 12.72617,0 c 0.0113,-0.274544 0.0671,-0.330386 0.14238,-0.142385 0.0681,0.170123 0.0597,0.373388 -0.0186,0.451701 -0.0783,0.07831 -0.13401,-0.06088 -0.12378,-0.309316 z m -12.50892,-0.73957 c -4.2e-4,-0.654146 1.18692,-2.902006 2.01986,-3.823967 0.92255,-1.021154 2.35737,-1.899474 3.09638,-1.895439 0.232,0.0012 -0.10844,0.249753 -0.75654,0.552193 -1.46527,0.683788 -2.78113,2.118708 -3.67436,4.006816 -0.37684,0.796547 -0.68524,1.318725 -0.68534,1.160397 z m 11.59942,-1.593855 c -0.73899,-1.521071 -2.12037,-2.944005 -3.469,-3.573358 -0.64809,-0.30244 -0.98853,-0.550928 -0.75654,-0.552193 1.31289,-0.0072 3.60844,2.020601 4.45567,3.935903 0.61086,1.380968 0.42362,1.53527 -0.23013,0.189648 z M 195.548,52.509639 c -0.0854,-0.138242 -0.1048,-0.301893 -0.043,-0.363669 0.0618,-0.06178 0.17512,0.05133 0.25187,0.251349 0.15936,0.415276 0.0235,0.488322 -0.20884,0.11232 z m 2.6172,-0.0534 c 0.0885,-0.232422 0.22028,-0.363219 0.29284,-0.290658 0.0726,0.07256 1.5e-4,0.262722 -0.16091,0.422586 -0.23275,0.231018 -0.25982,0.203949 -0.13193,-0.131928 z m 32.73325,0.0534 c -0.0854,-0.138242 -0.1048,-0.301893 -0.043,-0.363669 0.0618,-0.06178 0.17512,0.05133 0.25187,0.251349 0.15936,0.415276 0.0235,0.488322 -0.20885,0.11232 z m 2.61721,-0.0534 c 0.0885,-0.232422 0.22028,-0.363219 0.29284,-0.290658 0.0726,0.07256 1.5e-4,0.262722 -0.16091,0.422586 -0.23275,0.231018 -0.25982,0.203949 -0.13193,-0.131928 z m -35.0121,-1.119978 c 0,-0.369855 -1.10692,-1.403307 -1.50306,-1.403307 -0.19038,0 -0.67243,0.274556 -1.07123,0.610123 -0.3988,0.33557 -0.72509,0.5407 -0.72509,0.455847 0,-0.436602 0.53059,-1.033327 1.14514,-1.287883 0.56961,-0.235939 0.81647,-0.222098 1.39748,0.07835 0.67495,0.349032 1.46434,1.793251 0.98017,1.793251 -0.12288,0 -0.22341,-0.110871 -0.22341,-0.246381 z m 31.81541,0.116843 c 0,-0.490186 0.80113,-1.501954 1.3787,-1.741191 0.57552,-0.238387 0.81869,-0.222911 1.42513,0.09069 0.40217,0.207967 0.73121,0.419752 0.73121,0.47063 0,0.05088 0.0742,0.286773 0.16479,0.524205 0.12557,0.328946 -0.019,0.27744 -0.60726,-0.216394 -0.42462,-0.35645 -0.9278,-0.648092 -1.11817,-0.648092 -0.39615,0 -1.50306,1.033452 -1.50306,1.403307 0,0.13551 -0.10605,0.246381 -0.23567,0.246381 -0.12962,0 -0.23567,-0.05829 -0.23567,-0.129538 z"
     style="fill:#000000;stroke-width:0.23567" />
  <path
     id="path9"
     stroke="#000"
     stroke-width="2"
     d="M5 5.8h337v337.6H5z" />
  <path
     id="path11"
     stroke="#000"
     stroke-width="2"
     d="M282.7 40.6c0-8.4 7-15.2 15.6-15.2 4.1 0 8 1.6 11 4.4a15 15 0 014.6 10.8c0 8.3-7 15.1-15.6 15.1s-15.6-6.8-15.6-15.1z" />
  <path
     sodipodi:nodetypes="ccccccccc"
     id="path892"
     d="m 139.48716,57.548105 h 10 v 10 l 20,-20 -20,-20 v 10 h -20 v 20 c 10,0 0,0 10,0 z"
     style="fill:none;stroke:#000000;stroke-width:1px;stroke-linecap:butt;stroke-linejoin:miter;stroke-opacity:1" />
  <path
     style="fill:none;stroke:#000000;stroke-width:1.04857px;stroke-linecap:butt;stroke-linejoin:miter;stroke-opacity:1"
     d="M 96.739578,36.469505 H 86.253924 V 25.983851 L 65.28262,46.955158 86.253924,67.926465 V 57.440811 H 107.22523 V 36.469505 c -10.485652,0 0,0 -10.485652,0 z"
     id="path894"
     sodipodi:nodetypes="ccccccccc" />
  <rect
     ry="23.479519"
     y="111.5277"
     x="185.32048"
     height="187.23967"
     width="115.72048"
     id="rect896"
     style="fill:#ffffff;stroke:#000000;stroke-width:5;stroke-linejoin:round;stroke-opacity:1" />
</svg>
